<mxfile host="app.diagrams.net" modified="2023-02-23T08:52:25.172Z" agent="5.0 (Windows NT 10.0; Win64; x64) AppleWebKit/537.36 (KHTML, like Gecko) Chrome/110.0.0.0 Safari/537.36" etag="xm0NZswDYQd3HkKziHZR" version="20.8.23" type="github">
  <diagram name="Strona-1" id="7RDATjxQW5t_SjkVkEPh">
    <mxGraphModel dx="1434" dy="796" grid="1" gridSize="10" guides="1" tooltips="1" connect="1" arrows="1" fold="1" page="1" pageScale="1" pageWidth="827" pageHeight="1169" math="0" shadow="0">
      <root>
        <mxCell id="0" />
        <mxCell id="1" parent="0" />
        <mxCell id="NjqfskM9aisurOhNqBht-1" value="START" style="ellipse;whiteSpace=wrap;html=1;" vertex="1" parent="1">
          <mxGeometry x="354" y="10" width="120" height="80" as="geometry" />
        </mxCell>
        <mxCell id="NjqfskM9aisurOhNqBht-2" value="a = input()" style="rounded=0;whiteSpace=wrap;html=1;" vertex="1" parent="1">
          <mxGeometry x="352" y="130" width="120" height="60" as="geometry" />
        </mxCell>
        <mxCell id="NjqfskM9aisurOhNqBht-3" value="a &amp;gt; 0" style="rhombus;whiteSpace=wrap;html=1;" vertex="1" parent="1">
          <mxGeometry x="352" y="260" width="124" height="120" as="geometry" />
        </mxCell>
        <mxCell id="NjqfskM9aisurOhNqBht-4" value="a * (-1)" style="rounded=1;whiteSpace=wrap;html=1;" vertex="1" parent="1">
          <mxGeometry x="550" y="290" width="120" height="60" as="geometry" />
        </mxCell>
        <mxCell id="NjqfskM9aisurOhNqBht-5" value="Wypisz a" style="rounded=1;whiteSpace=wrap;html=1;" vertex="1" parent="1">
          <mxGeometry x="160" y="290" width="120" height="60" as="geometry" />
        </mxCell>
        <mxCell id="NjqfskM9aisurOhNqBht-6" value="" style="endArrow=classic;html=1;rounded=0;" edge="1" parent="1" source="NjqfskM9aisurOhNqBht-3">
          <mxGeometry width="50" height="50" relative="1" as="geometry">
            <mxPoint x="476" y="370" as="sourcePoint" />
            <mxPoint x="546.7106781186548" y="320" as="targetPoint" />
          </mxGeometry>
        </mxCell>
        <mxCell id="NjqfskM9aisurOhNqBht-7" value="" style="endArrow=classic;html=1;rounded=0;" edge="1" parent="1" source="NjqfskM9aisurOhNqBht-3">
          <mxGeometry width="50" height="50" relative="1" as="geometry">
            <mxPoint x="281.28932188134524" y="370" as="sourcePoint" />
            <mxPoint x="281.28932188134524" y="320" as="targetPoint" />
          </mxGeometry>
        </mxCell>
        <mxCell id="NjqfskM9aisurOhNqBht-9" value="" style="endArrow=classic;html=1;rounded=0;" edge="1" parent="1" source="NjqfskM9aisurOhNqBht-2">
          <mxGeometry width="50" height="50" relative="1" as="geometry">
            <mxPoint x="412" y="240" as="sourcePoint" />
            <mxPoint x="412" y="260.71067811865476" as="targetPoint" />
          </mxGeometry>
        </mxCell>
        <mxCell id="NjqfskM9aisurOhNqBht-10" value="" style="endArrow=classic;html=1;rounded=0;entryX=0.567;entryY=0;entryDx=0;entryDy=0;entryPerimeter=0;" edge="1" parent="1" source="NjqfskM9aisurOhNqBht-1" target="NjqfskM9aisurOhNqBht-2">
          <mxGeometry width="50" height="50" relative="1" as="geometry">
            <mxPoint x="414" y="140" as="sourcePoint" />
            <mxPoint x="414" y="160.71067811865476" as="targetPoint" />
          </mxGeometry>
        </mxCell>
        <mxCell id="NjqfskM9aisurOhNqBht-12" value="T" style="text;html=1;align=center;verticalAlign=middle;resizable=0;points=[];autosize=1;strokeColor=none;fillColor=none;" vertex="1" parent="1">
          <mxGeometry x="325" y="285" width="30" height="30" as="geometry" />
        </mxCell>
        <mxCell id="NjqfskM9aisurOhNqBht-13" value="F" style="text;html=1;align=center;verticalAlign=middle;resizable=0;points=[];autosize=1;strokeColor=none;fillColor=none;" vertex="1" parent="1">
          <mxGeometry x="495" y="285" width="30" height="30" as="geometry" />
        </mxCell>
        <mxCell id="NjqfskM9aisurOhNqBht-14" value="" style="endArrow=none;html=1;rounded=0;entryX=0.5;entryY=1;entryDx=0;entryDy=0;" edge="1" parent="1" target="NjqfskM9aisurOhNqBht-4">
          <mxGeometry width="50" height="50" relative="1" as="geometry">
            <mxPoint x="410" y="460" as="sourcePoint" />
            <mxPoint x="530" y="380" as="targetPoint" />
          </mxGeometry>
        </mxCell>
        <mxCell id="NjqfskM9aisurOhNqBht-15" value="" style="endArrow=classic;html=1;rounded=0;entryX=0.25;entryY=1;entryDx=0;entryDy=0;" edge="1" parent="1" target="NjqfskM9aisurOhNqBht-5">
          <mxGeometry width="50" height="50" relative="1" as="geometry">
            <mxPoint x="410" y="460" as="sourcePoint" />
            <mxPoint x="530" y="380" as="targetPoint" />
          </mxGeometry>
        </mxCell>
        <mxCell id="NjqfskM9aisurOhNqBht-16" value="END" style="ellipse;whiteSpace=wrap;html=1;" vertex="1" parent="1">
          <mxGeometry x="80" y="470" width="120" height="80" as="geometry" />
        </mxCell>
        <mxCell id="NjqfskM9aisurOhNqBht-17" value="" style="endArrow=classic;html=1;rounded=0;entryX=0.5;entryY=0;entryDx=0;entryDy=0;exitX=0.008;exitY=0.9;exitDx=0;exitDy=0;exitPerimeter=0;" edge="1" parent="1" source="NjqfskM9aisurOhNqBht-5" target="NjqfskM9aisurOhNqBht-16">
          <mxGeometry width="50" height="50" relative="1" as="geometry">
            <mxPoint x="240" y="440" as="sourcePoint" />
            <mxPoint x="530" y="380" as="targetPoint" />
          </mxGeometry>
        </mxCell>
      </root>
    </mxGraphModel>
  </diagram>
</mxfile>
